PathFileType	4	(X/Y/Z)	Kaydara																																																																																																																									
DataRate	CameraRate	NumFrames	NumMarkers	Units	OrigDataRate	OrigDataStartFrame	OrigNumFrames																																																																																																																					
30	30	7	41	mm	30	94	372																																																																																																																					
Frame#	Time	NABA_LFHD			NABA_RFHD			NABA_LBHD			NABA_RBHD			NABA_LFTShould			NABA_RFTShould			NABA_LRRShould			NABA_RRRShould			NABA_T10			NABA_STRN			NABA_TRUN			NABA_LSHO			NABA_LUPA			NABA_LELB			NABA_LFRM			NABA_LWRA			NABA_LWRB			NABA_LFIN			NABA_RSHO			NABA_RUPA			NABA_RELB			NABA_RFRM			NABA_RWRA			NABA_RWRB			NABA_RFIN			NABA_LFWT			NABA_RFWT			NABA_LBWT			NABA_RBWT			NABA_LTHI			NABA_LKNE			NABA_LSHN			NABA_LANK			NABA_LHEE			NABA_LTOE			NABA_RTHI			NABA_RKNE			NABA_RSHN			NABA_RANK			NABA_RHEE			NABA_RTOE		
		X1	Y1	Z1	X2	Y2	Z2	X3	Y3	Z3	X4	Y4	Z4	X5	Y5	Z5	X6	Y6	Z6	X7	Y7	Z7	X8	Y8	Z8	X9	Y9	Z9	X10	Y10	Z10	X11	Y11	Z11	X12	Y12	Z12	X13	Y13	Z13	X14	Y14	Z14	X15	Y15	Z15	X16	Y16	Z16	X17	Y17	Z17	X18	Y18	Z18	X19	Y19	Z19	X20	Y20	Z20	X21	Y21	Z21	X22	Y22	Z22	X23	Y23	Z23	X24	Y24	Z24	X25	Y25	Z25	X26	Y26	Z26	X27	Y27	Z27	X28	Y28	Z28	X29	Y29	Z29	X30	Y30	Z30	X31	Y31	Z31	X32	Y32	Z32	X33	Y33	Z33	X34	Y34	Z34	X35	Y35	Z35	X36	Y36	Z36	X37	Y37	Z37	X38	Y38	Z38	X39	Y39	Z39	X40	Y40	Z40	X41	Y41	Z41
																																																																																																																												
94	3.11	187.12557	1487.02209	-1381.68411	17.86423	1450.32455	-1375.72342	195.25038	1561.62598	-1483.63052	-18.97434	1510.80307	-1448.5553	176.73634	1322.9863	-1552.41547	43.30243	1313.32794	-1547.09534	169.73204	1393.92181	-1660.07263	21.21676	1383.15063	-1644.42139	104.5551	1238.17276	-1749.93164	115.51608	1259.08829	-1510.64728	120.96767	1156.7379	-1474.55261	273.62753	1353.76556	-1604.01917	330.61699	1121.70898	-1665.82718	342.14996	1036.2262	-1651.25458	332.96806	963.98254	-1676.20941	279.66242	815.39902	-1600.67856	350.93147	814.28482	-1606.29593	332.74815	756.40182	-1563.08121	-53.7052	1340.7431	-1580.56168	-107.0597	1136.80786	-1658.29987	-128.04077	1014.20784	-1618.68011	-127.0503	919.0345	-1609.75296	-47.18744	800.73074	-1536.67694	-119.66818	785.38857	-1530.10284	-99.70682	751.48453	-1497.65961	243.70377	948.58803	-1580.25238	-19.99219	947.43576	-1565.18188	185.01017	1014.85023	-1745.34744	17.50974	1030.53329	-1738.07663	259.42438	647.77756	-1687.659	272.53693	507.16766	-1611.59866	237.72959	329.04705	-1690.72998	270.12028	262.56466	-1842.73071	210.1206	257.72207	-1913.23059	263.1517	110.46217	-1805.57953	-13.05056	660.63698	-1703.74664	14.47593	503.8755	-1585.03296	39.80794	332.71938	-1597.4408	47.14837	138.1415	-1652.82761	98.24808	91.5515	-1720.95154	96.78758	73.06211	-1514.19632
95	3.143	183.82044	1487.64755	-1371.74179	14.6851	1450.49149	-1365.33386	191.50537	1562.29889	-1473.62	-22.51612	1510.91766	-1438.10394	173.2304	1323.70987	-1542.22549	39.95069	1313.93234	-1536.49261	165.87626	1394.53064	-1650.09094	17.44352	1383.38882	-1633.98514	100.90627	1238.38219	-1739.45175	112.30397	1260.01053	-1500.0209	118.12486	1157.65121	-1463.90121	270.01381	1354.823	-1594.10721	327.64992	1123.23792	-1656.521	339.99256	1037.80624	-1642.11258	330.53322	964.67857	-1665.61172	276.5769	818.23624	-1584.89883	348.73093	816.61896	-1592.80579	331.20964	759.95842	-1547.798	-57.20448	1341.04309	-1569.86694	-110.36369	1136.40396	-1646.22208	-130.70301	1014.20937	-1605.96512	-129.61608	919.01474	-1596.71188	-49.68959	800.81932	-1523.47122	-122.1767	785.57426	-1516.82938	-102.12636	751.57364	-1484.33075	241.12696	950.15686	-1568.50784	-22.44079	947.29515	-1554.06433	183.21976	1014.84413	-1734.01215	15.12517	1029.93698	-1727.05154	257.84428	647.92	-1666.84448	268.88918	509.66541	-1586.30035	235.59917	328.63861	-1657.77939	265.88022	255.09399	-1807.12524	205.47132	244.94822	-1876.45889	266.22118	109.88626	-1759.41238	-13.17534	660.96756	-1694.82758	13.22815	503.0777	-1577.84958	39.46711	331.6317	-1592.49252	47.38549	138.25078	-1651.46942	98.85794	92.49173	-1720.00565	96.56559	73.05551	-1513.82263
96	3.177	180.84436	1488.2103	-1362.45636	11.80098	1450.89783	-1355.71457	188.27806	1562.84988	-1464.40964	-25.63135	1511.24023	-1428.46909	170.03113	1324.56177	-1532.47559	36.74547	1314.42795	-1526.54282	162.51446	1394.89182	-1640.71106	14.13808	1383.45825	-1624.26559	97.79697	1238.3046	-1729.4548	109.23439	1260.72166	-1490.11337	115.26772	1158.63129	-1453.5878	266.73668	1355.59708	-1584.72656	325.09186	1124.32442	-1647.36237	338.1926	1038.78082	-1632.62604	328.63625	965.07706	-1654.75204	275.41136	820.25589	-1571.55579	346.91116	818.42064	-1579.00208	329.73106	763.08395	-1532.59537	-60.53095	1341.1702	-1559.97116	-113.20933	1135.77164	-1634.7789	-132.83473	1013.81287	-1593.77808	-131.74247	918.79097	-1584.56512	-51.56182	800.32028	-1511.43311	-124.21298	785.16014	-1504.79675	-103.94591	751.01295	-1472.50214	239.09224	951.30989	-1557.08679	-24.52409	947.2345	-1542.8804	181.4097	1014.60266	-1723.11844	13.06679	1029.40109	-1716.21658	256.35035	648.05542	-1648.1221	266.00801	511.85959	-1563.49045	233.21012	326.60122	-1624.9733	263.68132	243.84996	-1769.1922	202.73087	227.98332	-1837.7951	267.17863	105.27267	-1710.72601	-13.59355	661.51642	-1686.5715	12.22257	502.25174	-1571.59332	38.71482	330.86788	-1588.16925	47.39649	138.39367	-1650.48935	98.98648	93.62177	-1719.86954	96.31948	73.05367	-1513.60031
97	3.21	178.28596	1488.89725	-1353.86047	9.23801	1451.48819	-1346.83044	185.48784	1563.35007	-1455.9819	-28.3317	1511.73126	-1419.63333	167.28895	1325.16678	-1523.15811	33.83385	1314.90097	-1517.11334	159.58189	1395.03265	-1631.85394	11.29791	1383.29788	-1615.19196	95.27504	1237.86179	-1719.86404	106.53391	1261.52184	-1480.55984	112.76449	1159.47121	-1443.60245	263.94598	1356.25336	-1575.64972	322.99538	1125.15968	-1637.90176	336.7366	1039.64333	-1622.68356	327.20512	965.34798	-1643.54187	273.87156	822.22435	-1557.59613	345.42625	819.90509	-1565.29892	328.23883	765.58701	-1517.89001	-63.36425	1341.09085	-1550.66071	-115.54399	1134.87	-1624.0126	-134.45595	1013.15414	-1582.15118	-133.45352	918.38432	-1573.17902	-53.47875	799.44412	-1500.90118	-125.9009	784.52408	-1493.91541	-105.53789	750.04738	-1461.81488	237.37646	951.96228	-1545.96909	-26.247	947.12067	-1531.8454	179.61269	1014.37881	-1712.59857	11.47114	1029.04602	-1705.55054	255.28929	648.08792	-1631.35559	263.66638	513.63117	-1543.48007	231.1075	323.98376	-1592.45087	262.15038	230.10939	-1729.91974	201.85877	208.24844	-1797.12677	265.56122	98.39151	-1659.47693	-14.09253	662.06253	-1678.61938	11.00195	501.36238	-1566.08612	37.95371	330.17677	-1584.96307	47.2837	138.53472	-1649.80728	99.34589	94.17882	-1719.14795	96.0234	73.05444	-1513.52264
98	3.243	175.98505	1489.76273	-1345.68848	7.03685	1452.29752	-1338.40149	183.06656	1563.88062	-1448.17444	-30.66522	1512.18857	-1411.41388	165.10368	1325.73456	-1514.09988	31.6157	1315.03143	-1508.09036	157.10036	1394.93317	-1623.29178	8.84992	1382.82532	-1606.37268	93.30425	1237.0813	-1710.47409	104.36474	1262.03224	-1471.24619	110.78411	1160.24574	-1433.78784	261.66553	1356.80313	-1566.86203	321.14517	1125.37262	-1627.64709	335.24097	1040.06462	-1611.94183	325.91679	965.5191	-1632.05765	272.55169	823.40714	-1544.53247	344.20422	820.99998	-1552.24274	327.00901	767.20238	-1504.20807	-65.67601	1340.681	-1541.65985	-117.26476	1133.9254	-1613.81805	-135.6158	1012.3922	-1571.45187	-134.7298	917.82028	-1562.64923	-54.94129	798.43292	-1490.7608	-127.50576	783.71399	-1483.71597	-106.89526	748.94707	-1451.95984	235.91026	952.1106	-1535.08713	-27.63065	946.61362	-1521.58844	178.26962	1013.9016	-1702.24304	10.21547	1028.4549	-1695.27603	254.60918	647.9715	-1616.32706	261.60198	514.76109	-1525.70038	229.19537	321.29379	-1560.85464	260.2783	215.83754	-1689.65988	199.90129	187.84775	-1754.91135	264.0366	92.20918	-1607.02347	-14.53224	662.44568	-1671.10611	10.05101	500.33382	-1560.64941	37.4606	329.3161	-1581.83792	47.06266	138.60296	-1649.20532	99.34143	95.06223	-1719.1803	95.89438	73.18756	-1513.36838
99	3.277	174.0066	1490.84381	-1337.71317	5.18602	1453.05496	-1330.22491	180.97944	1564.3045	-1440.65247	-32.68187	1512.45514	-1403.65509	163.45367	1325.858	-1505.12329	30.00571	1314.92294	-1498.93021	155.23395	1394.45129	-1614.78867	6.99024	1382.08069	-1597.73132	91.75122	1236.1187	-1701.26297	102.88991	1262.27921	-1461.94214	109.46918	1160.68756	-1424.06418	259.81392	1356.9397	-1558.06656	319.99949	1125.32356	-1617.18536	333.97568	1039.9868	-1600.86456	324.79462	965.32463	-1620.59723	271.3335	823.75702	-1532.09732	343.19813	821.31905	-1539.91577	326.06979	767.81105	-1491.54785	-67.43681	1340.00763	-1532.75696	-118.29284	1132.78366	-1604.28375	-136.23122	1011.41251	-1561.63208	-135.59713	916.92986	-1553.04871	-56.10231	797.38403	-1481.19049	-128.81179	782.60979	-1474.38843	-108.41403	747.66533	-1442.78839	234.72401	951.99615	-1524.4664	-28.87669	945.86014	-1511.47614	177.4486	1013.3461	-1692.09106	9.11939	1027.63206	-1685.21225	253.51784	647.56325	-1602.41318	259.81321	515.46909	-1509.59885	226.89241	318.96679	-1529.6785	259.04383	202.84967	-1649.43817	197.65076	168.53554	-1711.20102	262.36393	87.27437	-1555.11703	-14.61777	662.5724	-1663.44681	9.43243	499.18301	-1554.93271	37.27044	328.45219	-1578.36426	47.34718	138.6369	-1648.18649	99.74499	95.65029	-1718.68637	95.79369	73.15709	-1513.3287
100	3.31	172.42542	1491.6394	-1329.81689	3.67889	1453.63174	-1322.17896	179.31446	1564.53796	-1433.18954	-34.28216	1512.54318	-1395.93201	162.17846	1325.92865	-1496.25183	28.78011	1314.6434	-1490.05005	153.93745	1393.86627	-1606.25885	5.61339	1381.31912	-1589.21478	90.70274	1235.08041	-1692.23312	101.8133	1262.12631	-1452.79312	108.69935	1160.84877	-1414.61761	258.56434	1356.76559	-1549.26697	319.05624	1124.6212	-1606.59393	332.87773	1039.39758	-1589.81949	323.83934	964.73923	-1609.32373	270.54892	823.48152	-1520.34637	342.44469	821.00937	-1528.25378	325.30605	767.60208	-1479.80194	-68.65096	1339.19586	-1524.07257	-118.89563	1131.5155	-1595.26382	-136.37424	1010.06638	-1552.22809	-136.04338	915.91263	-1544.10065	-57.45732	795.77278	-1472.26593	-129.93869	781.29257	-1465.80719	-109.69357	746.24268	-1434.19907	234.02866	951.80748	-1514.05777	-29.56461	945.1268	-1501.40121	176.78776	1012.62856	-1682.13303	8.32785	1026.8219	-1675.26093	252.42725	647.06833	-1589.79889	258.31501	515.80284	-1495.3479	224.48584	317.30499	-1499.6344	256.8071	190.26709	-1607.79892	195.77742	150.86929	-1666.54678	259.18713	83.66388	-1503.22159	-14.76711	662.45377	-1655.34134	9.10587	498.2235	-1548.39783	37.28889	327.46792	-1574.25415	47.71254	138.76653	-1646.9632	100.42341	96.32459	-1717.50778	95.66187	73.10771	-1513.35709
